<svg id="visual" viewBox="0 0 900 600" width="900" height="600" xmlns="http://www.w3.org/2000/svg" xmlns:xlink="http://www.w3.org/1999/xlink" version="1.1"><rect x="0" y="0" width="900" height="600" fill="#0c3bd8"></rect><g transform="translate(449.9106770662951 302.899155313645)"><path d="M134.9 -242.2C169.9 -213.5 189.7 -167.3 211.7 -124C233.7 -80.7 257.9 -40.3 257.4 -0.3C257 39.8 232 79.7 209.2 121.5C186.3 163.4 165.7 207.3 131.2 235.8C96.7 264.4 48.3 277.7 1.6 275C-45.2 272.2 -90.3 253.5 -132.9 229.5C-175.5 205.6 -215.5 176.6 -237.1 137.4C-258.7 98.3 -261.8 49.2 -251.7 5.8C-241.6 -37.5 -218.2 -75 -198.6 -117.4C-178.9 -159.9 -163 -207.2 -130.5 -237.3C-98 -267.4 -49 -280.2 0.5 -281.1C50 -281.9 100 -270.9 134.9 -242.2" fill="#4154ec"></path></g></svg>