<svg id="visual" viewBox="0 0 900 600" width="900" height="600" xmlns="http://www.w3.org/2000/svg" xmlns:xlink="http://www.w3.org/1999/xlink" version="1.1"><rect x="0" y="0" width="900" height="600" fill="#0c3bd8"></rect><g transform="translate(435.1435700690189 302.02053783331075)"><path d="M121.9 -205.4C159.4 -189.4 192.3 -159.7 218.9 -123.2C245.4 -86.7 265.7 -43.3 270.8 2.9C275.8 49.2 265.7 98.3 239.6 135.7C213.5 173.1 171.5 198.7 128.9 212.1C86.3 225.5 43.2 226.8 2.8 221.9C-37.5 217 -75 205.9 -107.8 186.8C-140.5 167.7 -168.6 140.6 -188.1 108.1C-207.7 75.7 -218.9 37.8 -229.4 -6.1C-239.9 -50 -249.9 -100 -234.1 -139.1C-218.4 -178.2 -176.9 -206.5 -133.6 -219.1C-90.3 -231.8 -45.2 -228.9 -1.5 -226.3C42.2 -223.7 84.3 -221.4 121.9 -205.4" fill="#4154ec"></path></g></svg>