<?xml version="1.0" encoding="UTF-8" standalone="no" ?>
<!DOCTYPE svg PUBLIC "-//W3C//DTD SVG 1.1//EN" "http://www.w3.org/Graphics/SVG/1.1/DTD/svg11.dtd">
<svg xmlns="http://www.w3.org/2000/svg" xmlns:xlink="http://www.w3.org/1999/xlink" version="1.1" width="1000" height="750" viewBox="0 0 1000 750" xml:space="preserve">
<desc>Created with Fabric.js 4.6.0</desc>
<defs>
</defs>
<g transform="matrix(1 0 0 1 500 402.08)" id="Ica-UNPDKD_o4Uxk6ikxR"  >
<path style="stroke: none; stroke-width: 1; stroke-dasharray: none; stroke-linecap: butt; stroke-dashoffset: 0; stroke-linejoin: miter; stroke-miterlimit: 4; fill: rgb(0,85,209); fill-rule: nonzero; opacity: 1;" vector-effect="non-scaling-stroke"  transform=" translate(-490.3, -203.95)" d="M 33.60433 0 L 41.404329999999995 0 C 49.30432999999999 0 64.90432999999999 0 80.80433 5 C 95.26428999999999 9.57594 109.89175999999999 18.33971 124.38013 23.62601 L 218 23.62601 L 215.90695 24.866770000000002 C 218.20058 24.579880000000003 220.49931 24.28994 222.80433 24.000000000000004 C 238.60433 22.000000000000004 254.60433 20.000000000000004 270.40433 16.000000000000004 C 286.30433 12.000000000000004 301.90433 6.0000000000000036 317.80433 8.000000000000004 C 333.60433 10.000000000000004 349.60433 20.000000000000004 365.40433 22.000000000000004 C 381.30433 24.000000000000004 396.90433 18.000000000000004 412.60433 17.000000000000004 C 428.30433 16.000000000000004 443.90433 20.000000000000004 459.80433 22.000000000000004 C 475.60433 24.000000000000004 491.60433 24.000000000000004 507.40433 20.000000000000004 C 523.30433 16.000000000000004 538.9043300000001 8.000000000000004 554.60433 4.0000000000000036 C 570.30433 3.552713678800501e-15 585.90433 3.552713678800501e-15 601.80433 1.0000000000000036 C 617.60433 2.0000000000000036 633.60433 4.0000000000000036 649.4043300000001 6.0000000000000036 C 665.30433 8.000000000000004 680.9043300000001 10.000000000000004 696.80433 15.000000000000004 C 712.60433 20.000000000000004 728.60433 28.000000000000004 744.4043300000001 27.000000000000004 C 760.30433 26.000000000000004 775.9043300000001 16.000000000000004 791.6043300000001 15.000000000000004 C 807.3043300000002 14.000000000000004 822.9043300000001 22.000000000000004 838.8043300000002 23.000000000000004 C 854.6043300000001 24.000000000000004 870.6043300000001 18.000000000000004 886.4043300000002 19.000000000000004 C 902.3043300000002 20.000000000000004 917.9043300000002 28.000000000000004 925.8043300000002 32 L 933.6043300000001 36 L 933.6043300000001 37.61038 L 960.4113400000001 37.61038 L 955.4113400000001 40.56479 C 950.4113400000001 43.55707 940.4113400000001 49.46588 938.4113400000001 55.488330000000005 C 936.4113400000001 61.4729 942.4113400000001 67.53322 949.4113400000001 73.51778 C 956.4113400000001 79.54022 964.4113400000001 85.44903000000001 969.4113400000001 91.39572 C 974.4113400000001 97.34241 976.4113400000001 103.25121999999999 968.4113400000001 109.27365999999999 C 961.3721300000001 114.53948999999999 946.5906600000001 119.86397 933.6043300000001 125.14388 L 933.6043300000001 159.44028 C 936.3897400000001 160.72475 939.0604100000002 162.00724 941.4113400000001 163.28627 C 952.4113400000001 169.30871 956.4113400000001 175.21752 964.4113400000001 181.16421 C 972.4113400000001 187.1109 984.4113400000001 193.01971 979.4113400000001 199.04215 C 974.4113400000001 205.02671999999998 952.4113400000001 211.08704 943.4113400000001 217.0716 C 934.4113400000001 223.09403999999998 938.4113400000001 229.00285 934.4113400000001 234.94953999999998 C 934.1701200000001 235.30816 933.8998000000001 235.66664999999998 933.6043300000001 236.02503 L 933.6043300000001 290.13793999999996 C 943.5413100000001 295.69006999999993 962.4113400000001 301.29756999999995 962.4113400000001 306.84009 C 962.4113400000001 312.86253 940.4113400000001 318.77133999999995 935.4113400000001 324.71803 C 930.4113400000001 330.66472 942.4113400000001 336.57353 944.4113400000001 342.59597 C 946.3858000000001 348.50412 938.6140300000001 354.48609000000005 933.6043300000001 360.39612 L 933.6043300000001 374.98792 L 925.8043300000002 379.98792 C 917.9043300000002 384.98792 902.3043300000002 394.98792 886.4043300000002 398.98792 C 870.6043300000002 402.98792 854.6043300000002 400.98792 838.8043300000002 395.98792 C 822.9043300000002 390.98792 807.3043300000002 382.98792 791.6043300000001 383.98792 C 775.9043300000001 384.98792 760.3043300000002 394.98792 744.4043300000001 393.98792 C 728.6043300000001 392.98792 712.6043300000001 380.98792 696.80433 381.98792 C 680.9043300000001 382.98792 665.30433 396.98792 649.4043300000001 402.98792 C 633.6043300000001 408.98792 617.6043300000001 406.98792 601.80433 404.98792 C 585.9043300000001 402.98792 570.30433 400.98792 554.60433 399.98792 C 538.90433 398.98792 523.30433 398.98792 507.40433 401.98792 C 491.60433 404.98792 475.60433 410.98792 459.80433 405.98792 C 443.90433 400.98792 428.30433 384.98792 412.60433 383.98792 C 396.90433 382.98792 381.30433 396.98792 365.40433 396.98792 C 349.60433 396.98792 333.60433 382.98792 317.80433 382.98792 C 301.90433 382.98792 286.30433 396.98792 270.40433 401.98792 C 254.60433 406.98792 238.60433 402.98792 222.80433000000002 402.98792 C 206.90433000000002 402.98792 191.30433000000002 406.98792 175.60433 404.98792 C 159.90433000000002 402.98792 144.30433 394.98792 128.40433000000002 386.98792 C 112.60433000000002 378.98792 96.60433000000002 370.98792 80.80433000000002 370.98792 C 64.90433000000002 370.98792 49.30433000000002 378.98792 41.40433000000002 382.98792 L 33.604330000000026 386.98792 L 33.604330000000026 363.85082 L 32.00000000000003 362.66201 C 28.00000000000003 359.66001 20.00000000000003 353.73201 19.00000000000003 347.69001000000003 C 18.00000000000003 341.68601 24.00000000000003 335.60601 23.00000000000003 329.60201 C 22.00000000000003 323.56001000000003 14.000000000000028 317.63201 15.000000000000028 311.66601 C 16.00000000000003 305.70001 26.00000000000003 299.77201 27.00000000000003 293.73001000000005 C 28.00000000000003 287.72601000000003 20.00000000000003 281.64601000000005 15.000000000000028 275.64201 C 10.000000000000028 269.60001000000005 8.000000000000028 263.67201 6.000000000000028 257.63001 C 4.000000000000028 251.62601000000004 2.0000000000000284 245.54601000000002 1.0000000000000284 239.54201000000003 C 2.842170943040401e-14 233.50001000000003 2.842170943040401e-14 227.57201000000003 4.000000000000028 221.60601000000003 C 8.000000000000028 215.64001000000002 16.00000000000003 209.71201000000002 20.00000000000003 203.67001000000002 C 24.00000000000003 197.66601000000003 24.00000000000003 191.58601000000002 22.00000000000003 185.58201000000003 C 20.00000000000003 179.54001000000002 16.00000000000003 173.61201000000003 17.00000000000003 167.64601000000002 C 18.00000000000003 161.68001 24.00000000000003 155.75201 22.00000000000003 149.71001 C 20.00000000000003 143.70601000000002 10.000000000000028 137.62601 8.000000000000028 131.62201000000002 C 6.000000000000028 125.58001000000002 12.000000000000028 119.65201000000002 16.00000000000003 113.61001000000002 C 20.00000000000003 107.60601000000001 22.00000000000003 101.52601000000001 24.00000000000003 95.52201000000002 C 26.00000000000003 89.48001000000002 28.00000000000003 83.55201000000002 29.00000000000003 77.58601000000002 C 30.00000000000003 71.62001000000002 30.00000000000003 65.69201000000001 25.00000000000003 59.650010000000016 C 20.00000000000003 53.64601000000002 10.000000000000028 47.56601000000002 5.000000000000028 41.562010000000015 C 2.842170943040401e-14 35.52001000000001 2.842170943040401e-14 29.592010000000016 2.842170943040401e-14 26.590010000000014 L 2.842170943040401e-14 23.626010000000015 L 5.010590000000028 23.626010000000015 C 5.006820000000028 23.459800000000016 5.004920000000028 23.293120000000016 5.004920000000028 23.126010000000015 C 5.004920000000028 11.171020000000015 14.707520000000027 1.468420000000016 26.662510000000026 1.468420000000016 C 29.090120000000027 1.468420000000016 31.424850000000028 1.868500000000016 33.60432000000003 2.606280000000016 z" stroke-linecap="round" />
</g>
</svg>