<?xml version="1.0" encoding="UTF-8" standalone="no" ?>
<!DOCTYPE svg PUBLIC "-//W3C//DTD SVG 1.1//EN" "http://www.w3.org/Graphics/SVG/1.1/DTD/svg11.dtd">
<svg xmlns="http://www.w3.org/2000/svg" xmlns:xlink="http://www.w3.org/1999/xlink" version="1.1" width="1000" height="750" viewBox="0 0 1000 750" xml:space="preserve">
<desc>Created with Fabric.js 4.6.0</desc>
<defs>
</defs>
<g transform="matrix(1 0 0 1 501.93 390.86)" id="IKnutnlEOYnnd9F_SLb0s"  >
<path style="stroke: none; stroke-width: 1; stroke-dasharray: none; stroke-linecap: butt; stroke-dashoffset: 0; stroke-linejoin: miter; stroke-miterlimit: 4; fill: rgb(0,85,209); fill-rule: nonzero; opacity: 1;" vector-effect="non-scaling-stroke"  transform=" translate(-479.2, -207.9)" d="M 27.27369 11.04738 L 35.07369 14.04738 C 42.97369 17.04738 58.57369 23.04738 74.47369 20.04738 C 90.27369 17.04738 106.27369 5.04738 122.07369 3.0473800000000004 C 137.97369 1.0473800000000004 153.57369 9.04738 169.27369 10.04738 C 184.97368999999998 11.04738 200.57369 5.04738 216.47368999999998 2.0473800000000004 C 232.27369 -0.9526199999999996 248.27369 -0.9526199999999996 264.07369 4.04738 C 279.97369 9.04738 295.57369 19.04738 311.47369 20.04738 C 327.27369 21.04738 343.27369 13.04738 359.07369 10.04738 C 374.97369 7.04738 390.57369 9.04738 406.27369 12.04738 C 421.97369 15.04738 437.57369 19.04738 453.47369 16.04738 C 469.27369 13.04738 485.27369 3.0473800000000004 501.07369 2.0473800000000004 C 516.97369 1.0473800000000004 532.5736899999999 9.04738 548.27369 13.04738 C 563.97369 17.04738 579.5736899999999 17.04738 595.47369 19.04738 C 611.27369 21.04738 627.27369 25.04738 643.07369 24.04738 C 658.97369 23.04738 674.57369 17.04738 690.47369 11.04738 C 706.27369 5.04738 722.27369 -0.9526199999999996 738.07369 4.04738 C 748.31781 7.268800000000001 758.43739 15.05634 768.53943 21.79369 L 838.57973 21.79369 C 852.38648 14.142310000000002 866.30601 4.918750000000003 880.07369 4.04738 C 895.97369 3.0473800000000004 911.57369 13.04738 919.47369 18.04738 L 925.31793 21.79369 L 947.35 21.79369 L 944.35 25.14769 C 941.35 28.54469 935.35 35.25269 938.35 42.089690000000004 C 941.35 48.88369 953.35 55.763690000000004 955.35 62.55769000000001 C 957.35 69.39469000000001 949.35 76.10269000000001 948.35 82.85369 C 947.35 89.60469 953.35 96.31269 956.35 103.14968999999999 C 959.35 109.94368999999999 959.35 116.82369 954.35 123.61769 C 949.35 130.45469 939.35 137.16269 938.35 143.99969 C 937.35 150.79369 945.35 157.67369 948.35 164.46768999999998 C 951.35 171.30468999999997 949.35 178.01268999999996 946.35 184.76368999999997 C 943.35 191.51468999999997 939.35 198.22268999999997 942.35 205.05968999999996 C 945.35 211.85368999999997 955.35 218.73368999999997 956.35 225.52768999999995 C 957.35 232.36468999999994 949.35 239.07268999999994 945.35 245.82368999999994 C 941.35 252.57468999999995 941.35 259.28268999999995 939.35 266.11968999999993 C 937.35 272.9136899999999 933.35 279.7936899999999 934.35 286.58768999999995 C 935.35 293.42468999999994 941.35 300.13268999999997 947.35 306.96968999999996 C 953.35 313.76368999999994 959.35 320.64368999999994 954.35 327.43769 C 949.35 334.27468999999996 933.35 340.98269 927.35 347.73368999999997 C 927.32438 347.76252 927.29894 347.79134 927.27369 347.82016999999996 L 927.27369 361.74672999999996 C 928.80328 363.83216999999996 930.88708 365.92481999999995 933.35 368.02968999999996 C 941.35 374.82368999999994 953.35 381.70368999999994 954.35 388.49769 C 955.35 395.33468999999997 945.35 402.04269 940.35 405.43969 L 935.35 408.79368999999997 L 843.7416900000001 408.79368999999997 C 839.9780000000001 409.29459999999995 836.22022 409.76883999999995 832.47369 410.24309 C 816.57369 412.24309 800.97369 414.24309 785.27369 415.24309 C 769.5736899999999 416.24309 753.97369 416.24309 738.0736899999999 412.24309 C 734.23731 411.27185 730.38914 410.06479 726.5349 408.79368999999997 L 717.35 408.79368999999997 L 719.46346 406.43084 C 709.7862500000001 403.2083 700.0929000000001 400.24309 690.4736800000001 400.24309 C 674.5736800000001 400.24309 658.9736800000001 408.24309 643.0736800000001 409.24309 C 627.2736800000001 410.24309 611.2736800000001 404.24309 595.4736800000001 401.24309 C 579.5736800000001 398.24309 563.9736800000001 398.24309 548.27368 398.24309 C 532.57368 398.24309 516.9736800000001 398.24309 501.07368 395.24309 C 485.27368 392.24309 469.27368 386.24309 453.47368 386.24309 C 437.57368 386.24309 421.97368 392.24309 406.27368 394.24309 C 390.57368 396.24309 374.97368 394.24309 359.07368 391.24309 C 343.27368 388.24309 327.27368 384.24309 311.47368 385.24309 C 295.57368 386.24309 279.97368 392.24309 264.07368 394.24309 C 248.27368 396.24309 232.27368 394.24309 216.47368000000003 397.24309 C 200.57368000000002 400.24309 184.97368000000003 408.24309 169.27368 407.24309 C 153.57368000000002 406.24309 137.97368 396.24309 122.07368000000001 396.24309 C 106.27368000000001 396.24309 90.27368000000001 406.24309 74.47368 409.24309 C 58.57368 412.24309 42.97368 408.24309 35.07368 406.24309 L 27.273680000000002 404.24309 L 27.273680000000002 392.02369 L 23.04737 392.02369 L 18.04737 388.82569 C 13.04737 385.58669000000003 3.047370000000001 379.19069 4.047370000000001 372.67169 C 5.047370000000001 366.19369 17.04737 359.63369 25.04737 353.15569 C 25.82958 352.51828 26.57356 351.88205 27.27368 351.24684 L 27.27368 330.56027 C 19.9791 325.21292 8.206889999999998 319.87487 4.047369999999997 314.45169 C -0.9526300000000028 307.97369 5.047369999999997 301.41369 11.047369999999997 294.93568999999997 C 17.047369999999997 288.41668999999996 23.047369999999997 282.02068999999995 24.047369999999997 275.50168999999994 C 25.047369999999997 269.02368999999993 21.047369999999997 262.46368999999993 19.047369999999997 255.98568999999995 C 17.047369999999997 249.46668999999994 17.047369999999997 243.07068999999996 13.047369999999997 236.63368999999994 C 9.047369999999997 230.19668999999993 1.0473699999999972 223.80068999999995 2.0473699999999972 217.28168999999994 C 3.0473699999999972 210.80368999999993 13.047369999999997 204.24368999999993 16.047369999999997 197.76568999999995 C 19.047369999999997 191.24668999999994 15.047369999999997 184.85068999999996 12.047369999999997 178.41368999999995 C 9.047369999999997 171.97668999999993 7.047369999999997 165.58068999999995 10.047369999999997 159.06168999999994 C 13.047369999999997 152.58368999999993 21.047369999999997 146.02368999999993 20.047369999999997 139.54568999999995 C 19.047369999999997 133.02668999999995 9.047369999999997 126.63068999999996 4.047369999999997 120.11168999999995 C -0.9526300000000028 113.63368999999996 -0.9526300000000028 107.07368999999996 2.0473699999999972 100.59568999999996 C 5.047369999999997 94.07668999999996 11.047369999999997 87.68068999999997 10.047369999999997 81.24368999999996 C 9.047369999999997 74.80668999999996 1.0473699999999972 68.41068999999996 3.0473699999999972 61.891689999999954 C 5.047369999999997 55.41368999999995 17.047369999999997 48.85368999999996 20.047369999999997 42.375689999999956 C 23.047369999999997 35.85668999999996 17.047369999999997 29.460689999999957 14.047369999999997 26.221689999999956 L 11.047369999999997 23.023689999999956 L 27.27369 23.023689999999956 z" stroke-linecap="round" />
</g>
</svg>