<?xml version="1.0" encoding="UTF-8" standalone="no" ?>
<!DOCTYPE svg PUBLIC "-//W3C//DTD SVG 1.1//EN" "http://www.w3.org/Graphics/SVG/1.1/DTD/svg11.dtd">
<svg xmlns="http://www.w3.org/2000/svg" xmlns:xlink="http://www.w3.org/1999/xlink" version="1.1" width="1000" height="750" viewBox="0 0 1000 750" xml:space="preserve">
<desc>Created with Fabric.js 4.6.0</desc>
<defs>
</defs>
<g transform="matrix(0.91 0 0 0.91 514.2 393.66)" id="7fahhv0OUkqDUUpxjbyYS"  >
<path style="stroke: none; stroke-width: 1; stroke-dasharray: none; stroke-linecap: butt; stroke-dashoffset: 0; stroke-linejoin: miter; stroke-miterlimit: 4; fill: rgb(0,85,209); fill-rule: nonzero; opacity: 1;" vector-effect="non-scaling-stroke"  transform=" translate(-522.02, -209.24)" d="M 47.25416 0 L 55.054159999999996 4 C 62.954159999999995 8 78.55416 16 94.45416 18 C 110.25416 20 126.25416 16 142.05416 19 C 157.95416 22 173.55416 32 189.25416 32 C 204.95416 32 220.55416000000002 22 236.45416 19 C 252.25416 16 268.25416 20 284.05416 23 C 299.95416 26 315.55416 28 331.45416 26 C 347.25416 24 363.25416 18 379.05416 17 C 394.95416 16 410.55416 20 426.25416 25 C 441.95416 30 457.55416 36 473.45416 34 C 489.25416 32 505.25416 22 521.05416 16 C 536.95416 10 552.55416 8 568.2541600000001 8 C 583.9541600000001 8 599.55416 10 615.4541600000001 13 C 631.2541600000001 16 647.2541600000001 20 663.0541600000001 21 C 678.9541600000001 22 694.5541600000001 20 710.4541600000001 21 C 726.2541600000001 22 742.2541600000001 26 758.0541600000001 26 C 773.9541600000001 26 789.5541600000001 22 805.2541600000002 23 C 812.1167000000002 23.4371 818.9601400000001 24.82951 825.8178800000002 26.091549999999998 L 861.5209600000002 26.091549999999998 C 874.3550400000001 22.473879999999998 887.2700600000002 15.618239999999998 900.0541500000002 13.999999999999998 C 915.9541500000001 11.999999999999998 931.5541500000002 18 939.4541500000001 21 L 947.2541500000001 24 L 947.2541500000001 26.091549999999998 L 981.6164900000001 26.091549999999998 L 975.6164900000001 29.295579999999998 C 969.6164900000001 32.560069999999996 957.6164900000001 38.96814 968.1164900000001 45.315749999999994 C 978.6164900000001 51.66336999999999 1011.6164900000001 57.95052999999999 1011.6164900000001 64.29813999999999 C 1011.6164900000001 70.64574999999999 978.6164900000001 77.05381999999999 977.1164900000001 83.40142999999999 C 975.6164900000001 89.74905 1005.6164900000001 96.03620999999998 1005.6164900000001 102.38381999999999 C 1005.6164900000001 108.73142999999999 975.6164900000001 115.13949999999998 971.1164900000001 121.48710999999999 C 966.6164900000001 127.83473 987.6164900000001 134.12188999999998 987.6164900000001 140.46949999999998 C 987.6164900000001 146.81710999999999 966.6164900000001 153.22518 957.6164900000001 159.69369999999998 C 948.6164900000001 166.16222 951.6164900000001 172.57028999999997 965.1164900000001 178.91789999999997 C 978.6164900000001 185.26551999999998 1002.6164900000001 191.55267999999998 1020.6164900000001 197.90028999999998 C 1038.61649 204.2479 1050.61649 210.65597 1040.11649 217.00358 C 1029.61649 223.3512 996.6164900000001 229.63836 990.6164900000001 235.98597 C 984.6164900000001 242.33358 1005.6164900000001 248.74165000000002 1013.1164900000001 255.21017 C 1020.6164900000001 261.67869 1014.6164900000001 268.08676 1017.6164900000001 274.43437 C 1020.6164900000001 280.78199 1032.61649 287.06915 1020.6164900000001 293.41676 C 1008.6164900000001 299.76437 972.6164900000001 306.17244 969.6164900000001 312.52005 C 966.6164900000001 318.86767000000003 996.6164900000001 325.15483 1007.1164900000001 331.50244000000004 C 1017.6164900000001 337.85005 1008.6164900000001 344.25812 1004.1164900000001 350.60573000000005 C 999.6164900000001 356.95335000000006 999.6164900000001 363.24051000000003 992.1164900000001 369.58812000000006 C 984.6164900000001 375.93574000000007 969.6164900000001 382.34380000000004 962.1164900000001 385.60829000000007 L 954.6164900000001 388.81232000000006 L 947.2541500000001 388.81232000000006 L 947.2541500000001 409.99860000000007 L 939.4541500000001 411.99860000000007 C 931.5541500000002 413.99860000000007 915.9541500000001 417.99860000000007 900.0541500000002 415.99860000000007 C 884.2541500000002 413.99860000000007 868.2541500000002 405.99860000000007 852.4541500000001 400.99860000000007 C 836.5541500000002 395.99860000000007 820.9541500000001 393.99860000000007 805.2541500000001 395.99860000000007 C 789.55415 397.99860000000007 773.9541500000001 403.99860000000007 758.05415 405.99860000000007 C 742.2541500000001 407.99860000000007 726.2541500000001 405.99860000000007 710.45415 403.99860000000007 C 694.55415 401.99860000000007 678.95415 399.99860000000007 663.05415 402.99860000000007 C 647.2541500000001 405.99860000000007 631.2541500000001 413.99860000000007 615.45415 416.99860000000007 C 599.55415 419.99860000000007 583.95415 417.99860000000007 568.25415 414.99860000000007 C 552.5541499999999 411.99860000000007 536.95415 407.99860000000007 521.0541499999999 406.99860000000007 C 505.2541499999999 405.99860000000007 489.2541499999999 407.99860000000007 473.4541499999999 404.99860000000007 C 457.55414999999994 401.99860000000007 441.9541499999999 393.99860000000007 426.2541499999999 389.99860000000007 C 410.55414999999994 385.99860000000007 394.9541499999999 385.99860000000007 379.05414999999994 386.99860000000007 C 363.2541499999999 387.99860000000007 347.2541499999999 389.99860000000007 331.4541499999999 393.99860000000007 C 315.55414999999994 397.99860000000007 299.9541499999999 403.99860000000007 284.05414999999994 407.99860000000007 C 268.2541499999999 411.99860000000007 252.25414999999992 413.99860000000007 236.45414999999994 414.99860000000007 C 220.55414999999994 415.99860000000007 204.95414999999994 415.99860000000007 189.25414999999992 411.99860000000007 C 173.55414999999994 407.99860000000007 157.9541499999999 399.99860000000007 142.05414999999994 395.99860000000007 C 126.25414999999994 391.99860000000007 110.25414999999994 391.99860000000007 94.45414999999994 390.99860000000007 C 78.55414999999994 389.99860000000007 62.95414999999994 387.99860000000007 55.05414999999994 386.99860000000007 L 47.254149999999946 385.99860000000007 L 47.254149999999946 375.1754400000001 L 47.226029999999945 375.1189200000001 C 45.726029999999945 372.04664000000014 42.726029999999945 366.0158600000001 41.226029999999945 360.04198000000014 C 39.726029999999945 354.06810000000013 39.726029999999945 348.15111000000013 33.726029999999945 342.17722000000015 C 27.726029999999945 336.20334000000014 15.726029999999945 330.17256000000015 9.726029999999945 324.19868000000014 C 3.7260299999999447 318.22480000000013 3.7260299999999447 312.30781000000013 5.226029999999945 306.33392000000015 C 6.726029999999945 300.36004000000014 9.726029999999945 294.32926000000015 15.726029999999945 288.35538000000014 C 21.726029999999945 282.38150000000013 30.726029999999945 276.46451000000013 36.726029999999945 270.49062000000015 C 42.726029999999945 264.51674000000014 45.726029999999945 258.48596000000015 47.226029999999945 252.39829000000015 C 47.23545999999995 252.36001000000016 47.24483999999995 252.32173000000014 47.254149999999946 252.28345000000016 L 47.254149999999946 241.25873000000016 C 46.46795999999995 238.93264000000016 45.04520999999995 236.61505000000017 42.726029999999945 234.30596000000017 C 36.726029999999945 228.33208000000016 24.726029999999945 222.41509000000016 20.226029999999945 216.44120000000018 C 15.726029999999945 210.46732000000017 18.726029999999945 204.43654000000018 17.226029999999945 198.46266000000017 C 15.726029999999945 192.48878000000016 9.726029999999945 186.57179000000016 5.226029999999945 180.59790000000018 C 0.7260299999999447 174.62402000000017 -2.2739700000000553 168.59324000000018 2.2260299999999447 162.50557000000018 C 6.726029999999945 156.41790000000017 18.726029999999945 150.38712000000018 23.226029999999945 144.41324000000017 C 27.726029999999945 138.43936000000016 24.726029999999945 132.52237000000017 21.726029999999945 126.54848000000017 C 18.726029999999945 120.57460000000017 15.726029999999945 114.54382000000017 18.726029999999945 108.56994000000017 C 21.726029999999945 102.59606000000018 30.726029999999945 96.67907000000017 33.726029999999945 90.70518000000017 C 36.726029999999945 84.73130000000018 33.726029999999945 78.70052000000017 26.226029999999945 72.72664000000017 C 18.726029999999945 66.75276000000018 6.726029999999945 60.835770000000174 3.7260299999999447 54.86188000000017 C 0.7260299999999447 48.88800000000017 6.726029999999945 42.85722000000017 9.726029999999945 39.78494000000017 L 12.726029999999945 36.769550000000166 L 47.25415999999994 36.769550000000166 z" stroke-linecap="round" />
</g>
</svg>