<?xml version="1.0" encoding="UTF-8" standalone="no" ?>
<!DOCTYPE svg PUBLIC "-//W3C//DTD SVG 1.1//EN" "http://www.w3.org/Graphics/SVG/1.1/DTD/svg11.dtd">
<svg xmlns="http://www.w3.org/2000/svg" xmlns:xlink="http://www.w3.org/1999/xlink" version="1.1" width="1000" height="750" viewBox="0 0 1000 750" xml:space="preserve">
<desc>Created with Fabric.js 4.6.0</desc>
<defs>
</defs>
<g transform="matrix(1 0 0 1 500.43 368.96)" id="II92efZIDyJB4L67MXwgH"  >
<path style="stroke: none; stroke-width: 1; stroke-dasharray: none; stroke-linecap: butt; stroke-dashoffset: 0; stroke-linejoin: miter; stroke-miterlimit: 4; fill: rgb(0,85,209); fill-rule: nonzero; opacity: 1;" vector-effect="non-scaling-stroke"  transform=" translate(-486.41, -211.04)" d="M 35.97772 30.07874 L 43.777719999999995 29.07874 C 51.677719999999994 28.07874 67.27771999999999 26.07874 83.17772 21.07874 C 98.97771999999999 16.07874 114.97771999999999 8.07874 130.77772 7.07874 C 146.67772 6.07874 162.27772 12.07874 177.97771999999998 14.07874 C 193.67771999999997 16.07874 209.27772 14.07874 225.17771999999997 14.07874 C 240.97771999999998 14.07874 256.97772 16.07874 272.77772 19.07874 C 288.67771999999997 22.07874 304.27772 26.07874 320.17771999999997 24.07874 C 335.97772 22.07874 351.97772 14.07874 367.77772 11.07874 C 383.67771999999997 8.07874 399.27772 10.07874 414.97772 8.07874 C 430.67771999999997 6.07874 446.27772 0.07873999999999981 462.17771999999997 3.07874 C 477.97772 6.07874 493.97772 18.07874 509.77772 23.07874 C 525.67772 28.07874 541.27772 26.07874 556.97772 26.07874 C 572.67772 26.07874 588.2777199999999 28.07874 604.17772 24.07874 C 619.97772 20.07874 635.97772 10.07874 651.77772 10.07874 C 667.67772 10.07874 683.27772 20.07874 699.17772 24.07874 C 714.97772 28.07874 730.97772 26.07874 746.77772 20.07874 C 762.67772 14.07874 778.27772 4.07874 793.9777200000001 1.0787399999999998 C 809.6777200000001 -1.9212600000000002 825.27772 2.07874 841.1777200000001 4.07874 C 856.9777200000001 6.07874 872.9777200000001 6.07874 888.7777200000002 10.07874 C 904.6777200000001 14.07874 920.2777200000002 22.07874 928.1777200000001 26.07874 L 935.9777200000001 30.07874 L 935.9777200000001 31.65667 C 940.9897300000001 34.814029999999995 947.04726 38.86925 951.5780700000001 42.89861 C 958.3011000000001 48.87757 961.6626200000002 54.79958 954.0992100000001 60.778529999999996 C 949.926 64.0775 942.42677 67.3938 935.9777200000001 70.70831 L 935.9777200000001 93.5556 C 937.3373000000001 94.58651 938.6504000000001 95.61852999999999 939.8127700000001 96.65226 C 946.5358000000001 102.63121 948.2165500000001 108.66711 944.0146600000002 114.64606 C 941.9827300000002 117.53733000000001 938.5751800000002 120.41529 935.9777200000002 123.29281 L 935.9777200000002 135.70425 C 941.9242300000002 140.64215000000002 953.5561400000003 145.61862 954.9395800000002 150.63367 C 956.5934800000002 156.62919 943.5999700000002 162.56957 935.9777200000002 168.45481 L 935.9777200000002 203.23314 C 936.4007400000002 203.69409 936.8387100000002 204.15474999999998 937.2916200000002 204.61507999999998 C 943.1742700000002 210.59403999999998 951.5780500000002 216.51604999999998 948.2165400000002 222.49499999999998 C 946.3405500000002 225.83172999999996 940.8002500000002 229.18618999999998 935.9777200000002 232.55837999999997 L 935.9777200000002 251.83666999999997 C 938.9858100000002 254.13620999999998 942.2879900000001 256.42744999999996 944.8550300000002 258.71038 C 951.5780600000002 264.68933999999996 953.2588100000002 270.61134999999996 949.8973000000002 276.59029999999996 C 946.5357900000002 282.56924999999995 938.1320000000002 288.60515 939.8127600000003 294.5841 C 941.4935100000002 300.56305999999995 953.2588100000003 306.48506999999995 959.9818400000003 312.46402 C 966.7048700000003 318.44297 968.3856200000002 324.47887000000003 970.0663800000002 330.45782 C 971.7471400000002 336.43678 973.4279000000002 342.35879 972.5875200000002 348.33774000000005 C 971.7471400000002 354.31669000000005 968.3856300000001 360.3525900000001 966.7048700000001 363.42748000000006 L 965.0241100000002 366.44543000000004 L 963.5925200000001 366.44543000000004 C 966.1545700000001 370.36506 967.6443800000002 375.04810000000003 967.6443800000002 380.07700000000006 C 967.6443800000002 393.8539400000001 956.4630900000002 405.03523000000007 942.6861500000002 405.03523000000007 C 940.3624300000002 405.03523000000007 938.1125600000003 404.7171400000001 935.9777200000002 404.1221500000001 L 935.9777200000002 422.0750700000001 L 928.1777200000002 417.0750700000001 C 920.2777200000003 412.0750700000001 904.6777200000002 402.0750700000001 888.7777200000003 395.0750700000001 C 872.9777200000003 388.0750700000001 856.9777200000003 384.0750700000001 841.1777200000002 388.0750700000001 C 825.2777200000003 392.0750700000001 809.6777200000002 404.0750700000001 793.9777200000002 405.0750700000001 C 778.2777200000002 406.0750700000001 762.6777200000002 396.0750700000001 746.7777200000002 391.0750700000001 C 730.9777200000002 386.0750700000001 714.9777200000002 386.0750700000001 699.1777200000001 389.0750700000001 C 683.2777200000002 392.0750700000001 667.6777200000001 398.0750700000001 651.7777200000002 403.0750700000001 C 635.9777200000002 408.0750700000001 619.9777200000002 412.0750700000001 604.1777200000001 409.0750700000001 C 588.2777200000002 406.0750700000001 572.6777200000001 396.0750700000001 556.9777200000001 393.0750700000001 C 541.27772 390.0750700000001 525.6777200000001 394.0750700000001 509.7777200000001 399.0750700000001 C 493.9777200000001 404.0750700000001 477.9777200000001 410.0750700000001 462.1777200000001 414.0750700000001 C 446.2777200000001 418.0750700000001 430.6777200000001 420.0750700000001 414.9777200000001 419.0750700000001 C 399.2777200000001 418.0750700000001 383.6777200000001 414.0750700000001 367.7777200000001 409.0750700000001 C 351.9777200000001 404.0750700000001 335.9777200000001 398.0750700000001 320.1777200000001 397.0750700000001 C 304.2777200000001 396.0750700000001 288.6777200000001 400.0750700000001 272.7777200000001 400.0750700000001 C 256.9777200000001 400.0750700000001 240.9777200000001 396.0750700000001 225.1777200000001 396.0750700000001 C 209.2777200000001 396.0750700000001 193.6777200000001 400.0750700000001 177.9777200000001 400.0750700000001 C 162.2777200000001 400.0750700000001 146.67772000000008 396.0750700000001 130.7777200000001 397.0750700000001 C 114.9777200000001 398.0750700000001 98.9777200000001 404.0750700000001 83.17772000000011 408.0750700000001 C 67.2777200000001 412.0750700000001 51.67772000000011 414.0750700000001 43.77772000000011 415.0750700000001 L 35.97772000000011 416.0750700000001 L 35.97772000000011 391.4209200000001 L 30.979590000000112 391.4209200000001 L 26.479590000000112 388.2759300000001 C 21.979590000000112 385.07160000000005 12.979590000000112 378.78163000000006 8.479590000000112 372.55099000000007 C 3.979590000000112 366.3203500000001 3.979590000000112 360.1490600000001 3.979590000000112 353.9184200000001 C 3.979590000000112 347.6877800000001 3.979590000000112 341.3978100000001 6.979590000000112 335.1671800000001 C 9.979590000000112 328.9365400000001 15.979590000000112 322.7652500000001 18.979590000000112 316.5346100000001 C 21.979590000000112 310.3039700000001 21.979590000000112 304.0140000000001 18.979590000000112 297.7833700000001 C 15.979590000000112 291.5527300000001 9.979590000000112 285.3814400000001 14.479590000000112 279.1508000000001 C 17.939020000000113 274.36092000000014 27.603910000000113 269.53597000000013 35.97772000000011 264.6759500000001 L 35.97772000000011 236.12304000000012 C 26.036360000000112 231.67618000000013 13.42791000000011 227.24252000000013 6.979590000000112 222.77839000000012 C -2.020409999999888 216.54775000000012 0.9795900000001119 210.2577800000001 0.9795900000001119 204.02715000000012 C 0.9795900000001119 197.79651000000013 -2.020409999999888 191.62522000000013 2.479590000000112 185.39458000000013 C 6.979590000000112 179.16394000000014 18.979590000000112 172.87397000000013 24.979590000000112 166.52466000000013 C 30.979590000000112 160.17535000000012 30.979590000000112 153.88537000000014 32.479590000000115 147.65474000000012 C 33.979590000000115 141.42410000000012 36.979590000000115 135.25281000000012 32.479590000000115 129.02217000000013 C 27.979590000000115 122.79153000000014 15.979590000000115 116.50156000000013 17.479590000000115 110.27093000000013 C 18.765280000000114 104.93050000000014 29.968880000000116 99.63368000000014 35.97772000000012 94.30571000000013 L 35.97772000000012 79.41696000000013 C 33.88748000000012 77.23649000000013 31.11566000000012 75.05820000000013 27.97959000000012 72.88712000000012 C 18.97959000000012 66.65648000000013 6.979590000000119 60.485190000000124 3.979590000000119 54.25455000000012 C 0.979590000000119 48.02391000000012 6.979590000000119 41.733940000000125 9.979590000000119 38.52961000000012 L 12.979590000000119 35.38462000000012 L 35.97772000000012 35.38462000000012 z" stroke-linecap="round" />
</g>
</svg>